<?xml version="1.0" encoding="UTF-8"?>
<svg version="1.1" viewBox="400 400 1248 1248" width="720" height="720" xmlns="http://www.w3.org/2000/svg">
<path transform="translate(987,567)" d="m0 0h20l7 5 7 11 2 9 20 2 20 3 18 2 13 3 2-5 6-8 8-5h18l8 3 6 7 4 12v6l8 1 31 7 22 5 11 2 1-2h2l2-4 8-7 8-3h10l8 4 5 5 5 8 2 12-1 12 12 11 8 7 13 12 10 9 7 4h7l7 8 5 8 8 7 16 12 4-1 8-4 7-1h11l9 3 5 5 4 8 1 4v12l-5 10-8 6-5 2-1 3v14l3 30v17l7 1 8 5 7 8 2 6v13l-5 10-7 6-15 4-6 39-2 9 9 6 6 8 2 15-2 9-7 8-8 4-9 2-15-5-5-1-12 7-18 13-21 14h-2l1 9v11l-3 8-8 8-6 3-8 1-13-4-8-5-6 2-27 14-5 4-1 16-4 8-9 8-10 3-11-2-8-6-6-7-4-9v-3l-51-6-18-2-1 4-4 5-6 2 3 11 5 20 14 3 8 6 4 7 1 5v10l-3 8-8 8-10 3h-16l-3 1-2 4-12 17-5 10 1 6 5 10 1 6-2 8-4 6-9 8-8 3-13 1-6 9-15 27-1 4 8 10 3 7v8l-6 12-9 8-9 3h-7l-10-4-8-7-5-8-1-4v-7l4-11 7-6 2-1-1-7-8-21-7-14v-2l-11-1-8-4-9-8-3-7v-15l4-10 8-7 3-1h20l8 5 6 7 3 9v11l-7 15h-2l-3 4 8 16 10 25 12 2 2-6 12-23 7-12-1-4-7-11-1-10 4-12 8-8 5-2-3-24-3-13-9-2-8-4-7-7-2-5v-14l3-9-15-12-8-5-5 1-10 4h-11l-7-3-6 1-18 11-15 10-9 7-5 9-3 3-3 1h-12l-7-8-2-4-13-8-25-12-9-3-7 7-7 3h-13l-10-4-7-6-4-10v-9l-10-3-26-8-14-3-5 6-8 5-6 2h-7l-10-4-8-6-4-5-2-4v-14l5-10 4-3h2l-5-10-10-16-2-5-8 1h-11l-8-2-9-6-4-8-1-8 4-13 4-6 8-6v-12l-10-48-3-13v-4l-11-1-8-4-7-9-2-6v-12l5-10 5-6 6-4 3-1h15l2-5 6-10 27-54-6-5-5-9-1-7 2-9 4-6 5-5 6-4 4-1h14l8 3 4-1 10-9 8-6-3-9v-10l3-10 4-6 5-4 9-3h13l10 4 4-1 15-11 15-13 10-8 13-11 2-1-2-5-2-7v-9l4-9 9-8 9-4 9-1 8 2 6 4 7 8 3 8 10-2 8-2 10-1 44-1 19-2 4-1 6-11 8-9zm-38 33-22 2-44 1-11 1-3 9 1 5 11 9 9 7 6-1 11-4h9l9 4 5 1 8-4 10-7 12-8 12-9-1-4-2-2zm71 1-3 7-8 8 3 9 10 24 5 13 2 2 15 2 8 6 5 10 2 5 34-2 31-2 36-1 7-11 9-8 3-1h19l6 3 6 7 4 9 2 6 14 3 27 4 45 7 6 1-5-5-12-13-12-11-17-13-7 1-9 3h-7l-9-4-8-7-5-10-3-7-43-10-25-7-3 1-7 9-8 4-4 1h-11l-8-4-7-7-6-12-12-3-25-3-29-4zm-44 14-16 10-16 11-7 5-3 1 1 4 3 11 2 2 29 8 27 8 8 3 4-1 8-8 2-1-1-8-15-40-16-3-6-2zm-114 10-14 5-2 3-2 35-6 63h6l12-13 12-16 9-11 10-13 4-4-1-4-4 2-6 6 2-5 4-5-1-12v-14l-4-5-14-11zm-36 1-14 12-14 11-11 10-10 8-8 6 1 4 2 4v8l-2 9 5 6 17 13 13 11 8 5 7-1 8-3 2-7 1-21 2-16 3-41 2-14-5-2v9l-1-7v-3zm108 40-4 5-5 4 1 6 10 25 22 54 9 23 2 5h15l7 4 5 2 1 3 5-1 16-8 34-18 22-12 11-5 4-2-2-12 2-4-1-5-17-12-17-11-4 1-6 4-9 3h-10l-9-5-7-8-4-10-2-6-13-5-44-12zm-38 13-10 12-21 27-10 13-3 6 1 5 3 6 2 13 29 12 37 15 25 10 5-1 8-6-3-9-15-36-13-33-12-30-5-2-11-2zm255 13-74 1-18 2-2 1 2 4 15 10 16 11 4 1 9-5 5-1h14l8 4 6 7 6 11h41l15 6 17 8 19 10 5 2 4-1 11-8 12-1 13 1 11-14 12-15 8-12v-2l-12-3-75-12-9-1-7 9-6 4-12 3-9-1-8-4-6-7-5-8zm-387 14-10 5-14 2-10-5-4 1-10 9-7 6-1 5 1 13-1 10 5 5 14 13 14 11 7 6 5-2 9-3h9l11 4 4-1 8-6 11-9 1-5v-23l-6-8-8-7-13-10-10-9zm561 12-10 3-7 8-14 20-9 12 1 6 18-4 31-9 18-5 4-6-1-5-8-7-17-12zm-183 29-3 1-5 10 2 5 9 12 11 14 10 13 13 16 9 12 4 5 4-1 12-11 8-7 17-14 9-8-1-4-2-3-2-11 1-3-20-11-31-14-4-1zm-51 12-22 10-19 10-42 22-7 4-1 17-1 5h-2l2 4 7 6 7 8 40 40 7 8 14 14 9-3 5-1 3-12 2-14 2-25 3-26 4-30 1-13 3-12-1-5-11-7zm262-1-16 3-28 8-19 5-1 1-1 14 10 8 24 16 16 11 20 14 13 9 14-8v-25l-3-25-2-12-14-7h-3l-2-5-3-7zm-652 3-10 5-1 1v12l1 3 1 11 1 57 13 7 4-2 16-15 8-7 10-9-3-10-1-9 2-11-5-6-8-7-15-13-9-7zm424 3-10 3-2 3-5 38-5 44-5 38-1 12 5 4 6 2 14-12 10-9 22-18 13-11 11-9 9-7-7-11-11-13-13-17-14-19-10-13-5-5zm-446 2-5 4-10 18-16 32-7 13 1 4 5 6 4 9 3 8 8 4 6-1 7-6 9-6-1-30-1-48-1-7zm173 4-9 9-4 1h-13l-16-4-13 12-7 5 1 7 2 3h2l-4 12-3 6 2 4 15 15 8 7 26 26 8 7 13 13 8 7 11 11 11 9 8-1 3-1h14l6-10 17-32 13-23 5-10 3-7-1-5-4-5-4-10-1-8-16-8-34-14-40-15zm431 27-4 5 2 6 12 24 8 17 1 1 16 2 7 3 5 5 5 9 18-4 11-2 4-6-2-4-15-11-16-12-18-12-19-13-10-7zm-38 4-15 14-14 11-10 9-8 7v4l14 24 11 19 7 9 16 2 10 6 4 1 12-8 11-8 4-4-2-3v-19l4-6 6-4-1-5-12-24-9-19-1-1-16-3-5-2zm-495 29-9 7v2l-4 2-14 12-7 7-3 4 1 5 5 12 16 6 35 10 87 27 21 7 5-1v-4l-38-38-8-7-37-37-16-14-5 1-10 5-10-3zm241 4-10 4-14 1-4 5-11 21-10 18-15 29-5 9 1 4 5 5 4 7 29-1 20-3 26-1 13-1 4-1 37-3 3-3 4-8-1-5-32-32-7-8-9-10-7-7-7-8-11-11zm198 15-11 10-14 11-14 12-11 9-12 11-8 7-8 6 2 5 1 2v16l10 5 11 8 16 10 12-6 4-1h12l9 4 5-1 11-9 12-8-1-5-2-3v-13l3-8 6-8-2-5-13-25-14-23zm-540 21-6 7-7 4 1 11 7 35 6 29 1 1h6l17-47 2-6v-5l-6-5-5-12-3-8-7-4zm712 2-24 3-5 12-3 7 13 17 8 12 11 14 2 2 10-1 2-1 4-24 2-9v-17l-8-7-7-8zm-648 18-3 6 7 11 10 14 26 36 10 14 10 11 20 1 7 4 4 4 6-2 26-14 35-18 10-5 1-5-2-6-8-4-24-8-50-15-63-19-16-5zm576 6-24 16-2 2-1 19-4 6-8 8 2 7 7 15 10 26 5 11 16 3 5 3 5-1 10-7 12-8 19-13 9-6-1-5-1-2v-11l6-12 1-5-11-15-12-17-8-11-9 1-8 1-12-5zm-603 7-7 14-15 41v3l6 4 7 11 3 9 25 5 18 3 31 6 5-1 6-9-5-9-15-20-14-20-13-18-9-13-5-6zm366 33-28 2-10 2-28 1-31 3-19 1-3 3-1 5 19 12 18 10 23 13 21 12 25 14 15 9 13 8 5 2 4-29 6-41v-10l-9-7-6-8-1-2zm57 8-11 8-8 3-12 76 1 5 7 2 5-1 17-12 14-11 10-9 14-10 3-2-1-5-2-6 1-14-16-11-12-8-8-5zm111 1-10 8-13 10-2 2 3 21 3 3 17 9 12 6 18 10 4 2 5-1 6-4 3-1-3-10-12-32-6-14-1-4h-10l-11-4zm-295 15-9 6-15 5-4 10-9 30-1 9 7 6 4 8 2 14 10 4 24 9h3l5-5 6-4 8-2h11l8 4 6 7 4 7 22-4 17-1 21-5 8-15v-2l5-2v-4l-11-7-29-17-42-24-26-15-20-11zm-41 1-20 8-35 18-16 9-3 3 1 12 16 8 21 9 4-1 11-7 8-3 7-1 4-10 11-35 1-4-6-5zm-209 33-3 6-1 4 13 21 6 7 16 1 8 3 5 4 5 9 3 12 4 3 36 12h6l8-7 8-5-2-15-4-13-8-5-11-7-5-6-1-8-6-2-54-10-19-4zm518 1-6 5-11 4h-9l-10-4-4-1-16 12-12 10-13 10-12 10-6 4 3 9 1 9 23 1 42 5h5l5-9 8-5 8-2h10l8 3 6 5 6-2 18-10 12-8 1-1v-14l-8-6-23-12-23-13zm-386 26-9 8-4 2v10l4 20 9 3 12 6 6-2 18-11 5-6v-13l-10-5-25-11zm90 36-2 4-4 2-7 4-6 1h-9l-18-6-16 9-10 7-1 5v12l8 5 17 9 19 9 2 2h3v-2h18l12-6 10-7 18-11 6-3-1-5-3-6v-10l-9-4-19-7zm139 12-20 4-19 1-12 2-1 5v8l9 7 12 10 6 1 11-4h15l4-7 7-10 5-9-2-4-4-4zm23 15-16 22v4l6 9 3 7h17l6-4 9-7-1-9-4-15-2-5-3-1zm-6 51-8 10-9 6-3 3 2 16 4 18 7 2 8 1 4-11 8-10 10-14-2-5-1-2h-2l-2-5-3-7-4-2z" fill="#fff"/>
<path transform="translate(864,759)" d="m0 0 13 1 18 4 27 12-3 1-12-3-16-6-27-8z" fill="#fff"/>
<path transform="translate(1075,655)" d="m0 0 4 1-19 7-4 4-2 4-1-2v-7l9-6z" fill="#fff"/>
<path transform="translate(1048,658)" d="m0 0h8l-2 3h-11v-2z" fill="#fff"/>
<path transform="translate(976,618)" d="m0 0h8l5 2-3 1-10-2z" fill="#fff"/>
<path transform="translate(935,624)" d="m0 0h4v2l-7 1-3-2z" fill="#fff"/>
<path transform="translate(1224,998)" d="m0 0h11v1h-11z" fill="#fff"/>
<path transform="translate(682 1e3)" d="m0 0h6v1h-6z" fill="#fff"/>
<path transform="translate(796,792)" d="m0 0 2 1-4 2z" fill="#fff"/>
<path transform="translate(677 1e3)" d="m0 0 3 1z" fill="#fff"/>
<path transform="translate(688 1e3)" d="m0 0 2 1z" fill="#fff"/>
<path transform="translate(797,803)" d="m0 0" fill="#fff"/>
<path transform="translate(922,777)" d="m0 0 2 1z" fill="#fff"/>
<path transform="translate(937,645)" d="m0 0" fill="#fff"/>
<path transform="translate(972,1235)" d="m0 0" fill="#fff"/>
<path transform="translate(754,1014)" d="m0 0" fill="#fff"/>
<path transform="translate(1295,1006)" d="m0 0" fill="#fff"/>
<path transform="translate(984,968)" d="m0 0" fill="#fff"/>
<path transform="translate(796,805)" d="m0 0" fill="#fff"/>
<path transform="translate(798,801)" d="m0 0" fill="#fff"/>
<path transform="translate(1237,787)" d="m0 0" fill="#fff"/>
<path transform="translate(1012,661)" d="m0 0" fill="#fff"/>
<path transform="translate(990,621)" d="m0 0" fill="#fff"/>
<path transform="translate(1077,597)" d="m0 0" fill="#fff"/>
</svg>
